<?xml version="1.0" encoding="UTF-8" standalone="no"?>
<svg
   width="16"
   height="16"
   fill="currentColor"
   class="bi bi-cart"
   viewBox="0 0 16 16"
   version="1.1"
   id="svg4"
   sodipodi:docname="cart.svg"
   inkscape:version="1.1.1 (3bf5ae0d25, 2021-09-20)"
   xmlns:inkscape="http://www.inkscape.org/namespaces/inkscape"
   xmlns:sodipodi="http://sodipodi.sourceforge.net/DTD/sodipodi-0.dtd"
   xmlns="http://www.w3.org/2000/svg"
   xmlns:svg="http://www.w3.org/2000/svg">
  <defs
     id="defs8" />
  <sodipodi:namedview
     id="namedview6"
     pagecolor="#ffffff"
     bordercolor="#666666"
     borderopacity="1.0"
     inkscape:pageshadow="2"
     inkscape:pageopacity="0.0"
     inkscape:pagecheckerboard="0"
     showgrid="false"
     inkscape:zoom="5.453125"
     inkscape:cx="-9.4441261"
     inkscape:cy="6.9684814"
     inkscape:window-width="1920"
     inkscape:window-height="986"
     inkscape:window-x="-11"
     inkscape:window-y="-11"
     inkscape:window-maximized="1"
     inkscape:current-layer="svg4" />
  <path
     d="M 0,1 A 0.5,0.5 0 0 1 0.5,0.5 H 2 A 0.5,0.5 0 0 1 2.485,0.879 L 2.89,2.5 H 14.5 a 0.5,0.5 0 0 1 0.491,0.592 l -1.5,8 A 0.5,0.5 0 0 1 13,11.5 H 4 A 0.5,0.5 0 0 1 3.509,11.092 L 2.01,3.107 1.61,1.5 H 0.5 A 0.5,0.5 0 0 1 0,1 m 3.102,2.5 1.313,7 h 8.17 l 1.313,-7 z M 5,11.5 a 2,2 0 1 0 0,4 2,2 0 0 0 0,-4 m 7,0 a 2,2 0 1 0 0,4 2,2 0 0 0 0,-4 m -7,1 a 1,1 0 1 1 0,2 1,1 0 0 1 0,-2 m 7,0 a 1,1 0 1 1 0,2 1,1 0 0 1 0,-2"
     id="path2" />
  <circle
     style="fill:none;stroke:#000000;stroke-width:1.09951;stroke-linecap:round;stroke-linejoin:round"
     id="path847"
     cx="4.6727958"
     cy="8"
     r="12.7027" />
  <circle
     style="fill:none;stroke:#000000;stroke-width:1.30661;stroke-linecap:round;stroke-linejoin:round"
     id="circle973"
     cx="3.7326882"
     cy="8"
     r="15.095299" />
  <circle
     style="fill:none;stroke:#000000;stroke-width:1.55674;stroke-linecap:round;stroke-linejoin:round"
     id="circle975"
     cx="2.6629105"
     cy="8"
     r="17.985062" />
  <g
     id="g989"
     style="stroke:#ffffff">
    <path
       d="M 0,1 A 0.5,0.5 0 0 1 0.5,0.5 H 2 A 0.5,0.5 0 0 1 2.485,0.879 L 2.89,2.5 H 14.5 a 0.5,0.5 0 0 1 0.491,0.592 l -1.5,8 A 0.5,0.5 0 0 1 13,11.5 H 4 A 0.5,0.5 0 0 1 3.509,11.092 L 2.01,3.107 1.61,1.5 H 0.5 A 0.5,0.5 0 0 1 0,1 m 3.102,2.5 1.313,7 h 8.17 l 1.313,-7 z M 5,11.5 a 2,2 0 1 0 0,4 2,2 0 0 0 0,-4 m 7,0 a 2,2 0 1 0 0,4 2,2 0 0 0 0,-4 m -7,1 a 1,1 0 1 1 0,2 1,1 0 0 1 0,-2 m 7,0 a 1,1 0 1 1 0,2 1,1 0 0 1 0,-2"
       id="path977"
       style="stroke:#ffffff" />
    <circle
       style="fill:none;stroke:#ffffff;stroke-width:1.09951;stroke-linecap:round;stroke-linejoin:round"
       id="circle979"
       cx="4.6727958"
       cy="8"
       r="12.7027" />
    <circle
       style="fill:none;stroke:#ffffff;stroke-width:1.30661;stroke-linecap:round;stroke-linejoin:round"
       id="circle981"
       cx="3.7326882"
       cy="8"
       r="15.095299" />
    <circle
       style="fill:none;stroke:#ffffff;stroke-width:1.55674;stroke-linecap:round;stroke-linejoin:round"
       id="circle983"
       cx="2.6629105"
       cy="8"
       r="17.985062" />
  </g>
</svg>
